<?xml version="1.0" encoding="UTF-8"?> <!-- Generator: Adobe Illustrator 24.2.0, SVG Export Plug-In . SVG Version: 6.00 Build 0) --> <svg xmlns="http://www.w3.org/2000/svg" xmlns:xlink="http://www.w3.org/1999/xlink" version="1.1" id="Layer_1" x="0px" y="0px" viewBox="0 0 263.3 93.6" style="enable-background:new 0 0 263.3 93.6;" xml:space="preserve"> <style type="text/css"> .st0{fill:#FFFFFF;} </style> <g id="BLUE"> <path class="st0" d="M49.1,0.7c0.1,0,0.3,0.1,0.4,0.1c6,0.3,11.7,1.7,17.1,4.3c4.6,2.2,8.8,5,12.4,8.6c0.1,0.1,0.2,0.2,0.4,0.4 c-0.4,0-0.6,0-0.9,0c-0.3,0-0.4,0.1-0.5,0.3c-1,1.9-1.9,3.7-2.9,5.6c-1.1,2.1-2.2,4.2-3.3,6.2c-0.1,0.1-0.1,0.3-0.2,0.4 c0.2,0,0.4,0,0.6,0c5.3,0,10.5,0,15.8,0c0.4,0,0.6,0.1,0.7,0.5c0.6,1.4,1.1,2.8,1.7,4.1c0.1,0.1,0.1,0.3,0.2,0.5 c-0.4,0-0.9,0-1.3,0c-0.3,0-0.4,0.1-0.5,0.3c-2,3.9-4.1,7.7-6.1,11.6c-0.1,0.1-0.1,0.2-0.2,0.4c0.6,0,1.2,0,1.8,0 c0.6,0,1.2,0,1.8,0c0.6,0,1.2,0,1.8,0c0.6,0,1.1,0,1.7,0c0.6,0,1.2,0,1.8,0c0.6,0,1.2,0,1.8,0c0,0.6,0.1,1.1,0.1,1.6 c0,2,0,4.1-0.3,6.1c-0.5,4.4-1.5,8.6-3.2,12.6c-2.2,5.2-5.2,9.9-9.1,14c-5.4,5.7-11.8,9.7-19.2,12.1c-2.8,0.9-5.6,1.5-8.5,1.9 c-0.9,0.1-1.8,0.2-2.7,0.3c-0.1,0-0.2,0-0.3,0.1c-1.9,0-3.7,0-5.6,0c-0.1,0-0.2-0.1-0.3-0.1c-2.4-0.1-4.7-0.5-7-1 C28.6,89.9,21.3,86,15.1,80c-4.1-3.9-7.3-8.4-9.7-13.5c-2.5-5.3-3.9-10.8-4.3-16.7c0-0.3-0.1-0.6-0.2-0.9c0-1.4,0-2.7,0-4.1 c0-0.1,0.1-0.1,0.1-0.2c0.1-0.7,0.1-1.3,0.2-2c0.2-2.5,0.7-5,1.3-7.5C4.7,26.7,9,19.4,15.4,13.4c4.4-4.2,9.5-7.4,15.1-9.6 c4.5-1.7,9.2-2.7,14-3c0.2,0,0.3-0.1,0.5-0.1C46.3,0.7,47.7,0.7,49.1,0.7z M78.7,44.2c2.2-4.1,4.3-8.2,6.5-12.4c-0.1,0-0.1,0-0.2,0 c-1.9,0-3.9,0-5.8,0c-0.2,0-0.3,0.1-0.4,0.3c-2.1,3.9-4.1,7.9-6.2,11.8c0,0.1-0.1,0.2-0.1,0.3C74.5,44.2,76.6,44.2,78.7,44.2z M69.1,31.8c-0.8,1.3-6.4,12-6.4,12.4c2,0,3.9,0,5.9,0c2.2-4.1,4.3-8.2,6.5-12.4C73.1,31.8,71.1,31.8,69.1,31.8z M60.1,31.8 c-0.6,0.9-6.4,12-6.4,12.4c1.5,0,3,0,4.6,0c0.4-0.6,6.4-12,6.4-12.4C63.2,31.8,61.6,31.8,60.1,31.8z M73.9,14.2c-0.2,0-0.3,0-0.4,0 c-1.3,0-2.6,0-3.9,0c-0.3,0-0.4,0.1-0.6,0.4c-2,3.9-4.1,7.8-6.1,11.6c-0.1,0.1-0.1,0.3-0.2,0.4c1.6,0,3.1,0,4.7,0 C69.6,22.5,71.8,18.4,73.9,14.2z M63.5,14.3c-0.1,0-0.2,0-0.3,0c-1.3,0-2.5,0-3.8,0c-0.3,0-0.4,0.2-0.5,0.4 c-2,3.9-4.1,7.8-6.1,11.7c-0.1,0.1-0.1,0.2-0.1,0.3c1.5,0,2.9,0,4.3,0C59.2,22.5,61.3,18.4,63.5,14.3z M50.1,31.8 c-2.2,4.1-4.3,8.2-6.5,12.3c1.5,0,2.9,0,4.4,0c2.1-4.1,4.3-8.2,6.5-12.3C53,31.8,51.6,31.8,50.1,31.8z M36.8,44.2 c2.1-4.1,4.3-8.2,6.4-12.3c-0.1,0-0.2,0-0.2,0c-0.9,0-1.9,0-2.8,0c-0.3,0-0.4,0.1-0.5,0.3c-2,3.9-4.1,7.8-6.1,11.7 c0,0.1-0.1,0.2-0.1,0.3C34.6,44.2,35.7,44.2,36.8,44.2z M52.3,14.2c-0.2,0-0.3,0-0.5,0c-0.8,0-1.7,0-2.5,0c-0.3,0-0.5,0.1-0.6,0.4 c-1.9,3.7-3.9,7.5-5.8,11.2c-0.1,0.3-0.3,0.5-0.4,0.8c1.1,0,2.2,0,3.4,0C48,22.5,50.1,18.4,52.3,14.2z M35.2,26.6 c2.1-4.1,4.3-8.2,6.5-12.4c-0.5,0-1,0-1.5,0c-0.4,0-0.5,0.1-0.7,0.4c-0.6,1.3-1.3,2.5-1.9,3.7c-1.4,2.6-2.7,5.3-4.1,7.9 c-0.1,0.1-0.1,0.2-0.2,0.4C33.9,26.6,34.5,26.6,35.2,26.6z M24.2,44.1c0.7,0,1.3,0,1.9,0c0.6-1,6.3-12,6.3-12.3c-0.6,0-1.2,0-1.9,0 C28.5,35.9,26.4,40,24.2,44.1z M23.5,26.6c0.4,0,0.6,0,0.9,0c0.1,0,0.3,0,0.3-0.2c0.1-0.1,0.1-0.2,0.2-0.3c0.9-1.7,1.8-3.5,2.7-5.2 c1.1-2.1,2.1-4.1,3.2-6.2c0.1-0.1,0.1-0.3,0.2-0.5c-0.3,0-0.5,0-0.7,0c-0.3,0-0.4,0.1-0.6,0.3c-1.8,3.5-3.7,7-5.5,10.6 C24,25.6,23.8,26.1,23.5,26.6z"></path> <path class="st0" d="M248.3,32.7c-0.2,0.8-0.3,1.5-0.5,2.3c-0.1,0.4-0.2,0.8-0.3,1.2c-2.5,0-4.9,0-7.4,0c0.1-0.3,0.1-0.6,0.2-0.9 c0.2-0.9,0.4-1.9,0.6-2.8c0.1-0.3,0.1-0.7,0-1.1c-0.1-0.9-0.6-1.4-1.5-1.5c-1.1-0.2-2,0.2-2.7,1c-0.5,0.6-0.9,1.3-1.1,2 c-0.4,1.3-0.7,2.6-1,4c-0.7,3.3-1.4,6.6-2.1,9.9c-0.2,0.9-0.3,1.8-0.4,2.7c0,0.4,0,0.7,0.1,1.1c0.2,1.2,1.2,1.9,2.4,1.7 c0.8-0.1,1.4-0.6,1.8-1.2c0.3-0.5,0.5-1,0.7-1.5c0.6-1.5,0.8-3,1.2-4.5c0-0.1,0.1-0.2,0.1-0.4c2.5,0,4.9,0,7.4,0c0,0.1,0,0.2,0,0.2 c-0.4,1.9-0.7,3.9-1.4,5.8c-0.7,1.9-1.7,3.6-3.3,4.9c-1.4,1.1-2.9,1.8-4.7,2.2c-2.1,0.4-4.3,0.5-6.5,0.1c-1.2-0.2-2.4-0.7-3.3-1.6 c-1.3-1.2-1.8-2.7-1.9-4.4c-0.2-1.9,0.2-3.8,0.6-5.6c0.8-3.7,1.6-7.4,2.4-11.1c0.5-2.2,1.2-4.2,2.4-6.1c1.8-2.7,4.3-4.2,7.4-4.6 c1.8-0.3,3.7-0.3,5.5,0.1c1.4,0.3,2.7,0.9,3.7,1.9c0.8,0.9,1.4,1.9,1.5,3.1c0,0.1,0.1,0.1,0.1,0.2 C248.3,30.6,248.3,31.7,248.3,32.7z"></path> <path class="st0" d="M178.3,39.3c-1.3,6-2.5,11.9-3.8,17.8c-2.7,0-5.3,0-8,0c3-14.3,6.1-28.5,9.1-42.8c0.3,0,0.5,0,0.6,0 c5.2,0,10.4,0,15.6,0c0.9,0,1.9,0.1,2.8,0.3c2.5,0.6,4,2.2,4.7,4.6c0.5,1.6,0.5,3.2,0.3,4.8c-0.3,2.7-1,5.4-2.3,7.8 c-2.1,4-5.5,6.2-9.8,7c-1.3,0.2-2.6,0.3-3.9,0.3c-1.5,0-3.1,0-4.6,0C178.8,39.3,178.6,39.3,178.3,39.3z M179.7,32.8 c0.1,0,0.1,0.1,0.2,0.1c1.7,0,3.5,0.1,5.2,0c2.1-0.1,3.8-1.2,4.9-3.1c0.7-1.2,1.1-2.6,1.3-4c0.2-0.9,0.3-1.7,0.1-2.6 c-0.2-1-0.7-1.8-1.7-2.1c-0.6-0.2-1.2-0.3-1.8-0.4c-1.8-0.1-3.5-0.1-5.3-0.1c-0.1,0-0.2,0-0.3,0.1 C181.4,24.8,180.6,28.8,179.7,32.8z"></path> <path class="st0" d="M207.5,34.5c-2.4,0-4.7,0-7.1,0c0.7-3.1,1.7-5.9,4.3-7.9c1.3-1,2.8-1.6,4.4-2c3-0.6,6-0.7,9-0.1 c0.7,0.1,1.3,0.4,1.9,0.6c2,0.9,3,2.5,3,4.6c0.1,1.3-0.2,2.5-0.5,3.7c-1.1,5-2.1,10-3.2,15c-0.3,1.6-0.7,3.2-1,4.7 c-0.2,1.2-0.3,2.4-0.2,3.6c0,0.1,0,0.2,0,0.3c-2.3,0-4.6,0-7,0c-0.2-0.5-0.2-1-0.1-1.6c0.1-0.5,0.2-1,0.3-1.6 c-0.2,0.2-0.4,0.3-0.5,0.5c-0.9,1-2,1.9-3.2,2.5c-1.7,1-3.5,1.2-5.4,0.9c-0.7-0.1-1.4-0.3-2.1-0.5c-1.7-0.6-2.7-1.9-3.1-3.7 c-0.2-1.2-0.2-2.4,0-3.7c0.2-1.4,0.5-2.8,1-4.1c1-2.4,2.6-4.2,4.8-5.6c1.6-1,3.4-1.8,5.2-2.5c1.4-0.5,2.8-1.1,4.2-1.7 c0.7-0.3,1.3-0.7,1.8-1.2c1.1-0.9,1.5-2.1,1.6-3.4c0-0.9-0.4-1.5-1.3-1.6c-1.1-0.2-2.2-0.2-3.3,0c-1.2,0.3-2.1,1-2.6,2.2 c-0.3,0.6-0.4,1.3-0.6,1.9C207.5,34.2,207.5,34.3,207.5,34.5z M213.6,40.4c0,0-0.1-0.1-0.1-0.1c-0.4,0.2-0.8,0.4-1.2,0.7 c-1.8,1.1-3.6,2.1-5.3,3.2c-0.5,0.3-0.9,0.7-1.2,1.1c-1,1.5-1.3,3.1-1.3,4.8c0,1,0.6,1.7,1.5,1.9c1.6,0.4,3.3,0.1,4.5-1.5 c0.5-0.7,0.9-1.5,1.1-2.3c0.5-1.8,0.9-3.6,1.3-5.4C213.2,42.1,213.4,41.3,213.6,40.4z"></path> <path class="st0" d="M150.1,34.5c-2.4,0-4.7,0-7,0c0-0.2,0-0.3,0.1-0.5c0.3-1.4,0.7-2.8,1.4-4.1c1.4-2.7,3.6-4.3,6.5-5.1 c1.3-0.4,2.6-0.5,3.9-0.6c1.7-0.1,3.5-0.1,5.2,0.2c1.3,0.2,2.6,0.6,3.6,1.5c1,0.8,1.6,1.9,1.8,3.2c0.2,1.4,0,2.7-0.3,4 c-1.1,5.3-2.3,10.6-3.4,15.9c-0.3,1.6-0.7,3.2-1,4.9c-0.2,1-0.1,2-0.2,3c0,0.1,0,0.2,0,0.3c-2.3,0-4.7,0-7,0 c-0.3-1-0.1-2.1,0.2-3.2c-0.6,0.6-1,1-1.5,1.5c-1.3,1.2-2.9,2.2-4.7,2.5c-1.8,0.3-3.5,0.2-5.2-0.5c-1.7-0.7-2.7-2.1-2.9-3.9 c-0.3-3.9,0.4-7.5,2.9-10.6c1.2-1.4,2.7-2.5,4.3-3.3c2-1,4.2-1.8,6.3-2.6c1.1-0.4,2.2-0.9,3.1-1.5c1.3-0.9,2-2.2,1.9-3.8 c0-0.9-0.4-1.4-1.3-1.6c-0.9-0.2-1.8-0.2-2.7-0.1c-0.3,0-0.6,0.1-0.9,0.2c-1,0.3-1.8,0.9-2.3,1.8c-0.3,0.6-0.5,1.3-0.7,2 C150.1,34.1,150.1,34.3,150.1,34.5z M156.1,40.3c-0.5,0.3-1,0.6-1.5,0.9c-1.7,1-3.4,2-5.1,3.1c-0.6,0.4-1.1,1-1.4,1.6 c-0.7,1.3-1,2.8-1,4.3c0,1.1,0.7,1.8,1.8,2.1c1.9,0.4,3.6-0.3,4.6-2c0.5-0.9,0.9-1.8,1.1-2.8c0.5-2.2,1-4.5,1.5-6.7 C156.1,40.6,156.1,40.5,156.1,40.3z"></path> <path class="st0" d="M113.4,57.1c-2.7,0-5.3,0-8,0c2.6-12.1,5.2-24.3,7.7-36.4c-0.8-0.1-1.6,0-2.3,0c-0.8,0-1.5,0-2.3,0 c-0.8,0-1.5,0-2.3,0c-0.8,0-1.5,0-2.4,0c0.4-2.1,0.9-4.2,1.3-6.3c8.9,0,17.7,0,26.7,0c-0.4,2.1-0.9,4.2-1.3,6.3c-3.1,0-6.2,0-9.3,0 C118.6,32.9,116,45,113.4,57.1z"></path> <path class="st0" d="M128.2,25c2.4,0,4.7,0,7.2,0c-0.4,1.8-0.8,3.6-1.1,5.5c0,0,0.1,0,0.1,0.1c0.1-0.1,0.2-0.3,0.3-0.4 c0.8-1.3,1.7-2.5,2.9-3.4c1.1-0.9,2.4-1.7,3.8-2c0.6-0.1,1.2-0.2,1.9-0.2c-0.6,3-1.2,5.9-1.9,8.8c-0.8,0-1.5,0-2.2,0 c-1.8,0.1-3.4,0.6-4.6,1.9c-0.9,1-1.4,2.1-1.7,3.4c-0.6,2.8-1.2,5.5-1.8,8.3c-0.7,3.3-1.4,6.7-2.1,10c0,0.1-0.1,0.2-0.1,0.4 c-2.5,0-4.9,0-7.4,0c0.5-2.7,1.1-5.4,1.7-8c0.6-2.7,1.1-5.4,1.7-8c0.6-2.7,1.1-5.4,1.7-8C127.1,30.4,127.6,27.7,128.2,25z"></path> <g> <path class="st0" d="M252.9,19.6c0-2.8,2.2-4.4,4.6-4.4c2.4,0,4.6,1.7,4.6,4.4s-2.2,4.4-4.6,4.4C255.1,24,252.9,22.4,252.9,19.6z M257.5,16.2c-1.8,0-3.2,1.4-3.2,3.4c0,2,1.4,3.4,3.2,3.4c1.8,0,3.2-1.4,3.2-3.4C260.7,17.6,259.3,16.2,257.5,16.2z M256.8,22 h-1.1v-4.9h1.8c1.3,0,2,0.4,2,1.5c0,0.9-0.5,1.2-1.2,1.3l1.1,2.1h-1.2l-1-2h-0.5V22z M256.8,19.1h0.9c0.6,0,0.8-0.2,0.8-0.6 c0-0.4-0.2-0.5-0.9-0.5h-0.7V19.1z"></path> </g> </g> </svg> 